# xmcd
#
# Track frame offsets:
# 150
# 12215
# 22720
# 37174
# 49337
# 62395
# 76004
# 84898
# 107501
# 122481
# 133958
#
# Disc length: 1981 seconds
#
#
# Revision: 0
# Processed by: cddbd v1.5.1PL2 Copyright (c) Steve Scherf et al.
# Submitted via: FreeRIP 2.945 
#
DISCID=7907bb0b
DTITLE=True Gospel Echoes - The Eagle Is Coming
DYEAR=2002
DGENRE=Gospel
TTITLE0=I'd Like To Go Back There
TTITLE1=A Place In The Mountain
TTITLE2=It's Mom's Birthday
TTITLE3=Go Down Moses
TTITLE4=Just Over In The Gloryland
TTITLE5=The Voice Of My Saviour
TTITLE6=Jesus Is The Rock
TTITLE7=The Eagle Is Coming
TTITLE8=Lilac Boquet
TTITLE9=Not Afraid
TTITLE10=Go Home
EXTD=T G E Music
EXTT0=
EXTT1=
EXTT2=
EXTT3=
EXTT4=
EXTT5=
EXTT6=
EXTT7=
EXTT8=
EXTT9=
EXTT10=
PLAYORDER=
